<svg xmlns="http://www.w3.org/2000/svg" width="52" height="64" viewBox="0 0 52 64"><ellipse cx="22" cy="62" rx="15" ry="2" fill="#102f3844"/><rect x="12" y="45" width="9" height="16" rx="2" fill="#243c50"/><rect x="24" y="45" width="9" height="16" rx="2" fill="#243c50"/><rect x="10" y="57" width="13" height="6" rx="2" fill="#163246"/><rect x="24" y="57" width="14" height="6" rx="2" fill="#163246"/><rect x="9" y="29" width="25" height="22" rx="5" fill="#953f4c" stroke="#173746" stroke-width="2"/><rect x="12" y="32" width="6" height="15" rx="1" fill="#ffa071"/><rect x="10" y="44" width="25" height="5" rx="1" fill="#25414c"/><rect x="11" y="9" width="25" height="22" rx="7" fill="#eed6ae" stroke="#173746" stroke-width="2"/><rect x="7" y="6" width="31" height="12" rx="4" fill="#953f4c"/><rect x="10" y="17" width="27" height="7" rx="2" fill="#253744"/><rect x="27" y="19" width="9" height="3" rx="1" fill="#ffb879"/><rect x="24" y="34" width="19" height="8" rx="3" fill="#eed6ae"/><rect x="33" y="28" width="17" height="9" rx="2" fill="#163548"/><rect x="42" y="29" width="9" height="6" rx="1" fill="#ffa071"/><rect x="32" y="33" width="6" height="10" rx="1" fill="#163548"/><rect x="7" y="32" width="8" height="15" rx="3" fill="#953f4c"/></svg>